<svg width="560" height="560" xmlns="http://www.w3.org/2000/svg" xml:space="preserve" version="1.1">
 <g>
  <title>Layer 1</title>
  <path id="svg_2" d="m353.06871,330.90373l-4.87046,-12.90882c-2.18974,-5.35953 -7.06217,-9.01241 -13.15418,-9.01241l-2.18974,0l0,-111.30496l-105.70281,0l0,61.61984l13.88279,0l15.83097,-19.7295c3.16777,-3.65092 8.03627,-6.0901 13.39378,-6.0901l33.85561,0c5.35751,0 9.98445,2.92034 12.41968,7.55126l9.98838,18.995c0.48705,0.73058 0.72861,1.70664 0.72861,2.92427c0,3.40739 -2.92228,6.32971 -6.33356,6.32971c-2.67875,0 -4.62498,-1.21566 -5.84652,-3.40739l-9.0084,-17.29228l-14.61335,0l11.20207,28.00937l3.41129,35.80023l28.97926,0c4.63087,0 8.28372,2.92427 9.98838,6.82264l3.1658,8.27987l-49.68658,0c-3.64892,0 -6.81865,-2.67682 -7.06021,-6.33167l-3.41129,-31.41873l-26.78755,55.52974c-1.4631,3.1678 -4.87243,5.35953 -8.76879,5.35953l-12.91066,0l32.88152,-67.95347l-10.22601,-25.57216l-9.74485,11.93473c-2.43327,3.16779 -6.57906,5.35756 -10.96051,5.35756l-14.36786,0l0,80.37328l22.89314,22.64985l-67.4677,0l0,-194.84015l194.84211,0l0,194.84015l-21.92101,0l-22.64765,-22.64985l0,-23.86551l20.21635,0l-0.00003,0zm-91.08945,-125.92042c7.55118,0 13.88082,6.33363 13.88082,13.88292c0,7.55126 -6.32964,13.6394 -13.88082,13.6394c-7.55118,0 -13.64123,-6.08814 -13.64123,-13.6394c0,-7.5493 6.09004,-13.88292 13.64123,-13.88292m6.09004,154.90194l17.53563,17.53581l-21.19241,0l-22.89314,-22.65181l13.6373,0c4.87439,0 9.50133,1.95017 12.91262,5.116" fill="#ffffff" stroke="null"/>
 </g>

</svg>